<svg xmlns="http://www.w3.org/2000/svg" xmlns:xlink="http://www.w3.org/1999/xlink" aria-hidden="true" role="img" class="iconify iconify--logos" width="31.88" height="32" preserveAspectRatio="xMidYMid meet" viewBox="0 0 256 257"><defs></defs><path fill="#E83F5B" d="M255.153 37.938L134.897 252.976c-2.483 4.44-8.862 4.466-11.382.048L.875 37.958c-2.746-4.814 1.371-10.646 6.827-9.67l120.385 21.517a6.537 6.537 0 0 0 2.322-.004l117.867-21.483c5.438-.991 9.574 4.796 6.877 9.62Z"></path><path fill="url(#IconifyId1813088fe1fbc01fb467)" d="M110.55 117.41L76.92 63.69l29.73-44.82c.45-.69.5-1.57.1-2.3a2.222 2.222 0 0 0-1.97-1.18H80.34c-.74 0-1.45.38-1.86 1L51.49 57.08V17.64c0-1.24-1.01-2.24-2.24-2.24h-21.9c-1.24 0-2.24 1-2.24 2.24V118.6c0 1.24 1 2.24 2.24 2.24h21.9c1.23 0 2.24-1 2.24-2.24V70.55l30.82 49.24c.41.65 1.13 1.05 1.9 1.05h24.44c.81 0 1.57-.44 1.96-1.16c.39-.71.37-1.58-.06-2.27z"></path></svg>